# xmcd CD database file
# Copyright (C) 1993-1998 Ti Kan
# 
# Track frame offsets:
#     150
#     13502
#     25722
#     36372
#     48757
#     61472
#     74142
#     87752
#     99787
#     112272
#     125285
#     136780
#     149892
#     163180
# 
# Disc length: 2364 seconds
# 
# Revision: 1
# Processed by: cddbd v1.4b41PL1 Copyright (c) Steve Scherf et al.
# Submitted via: DiscPlay 4.0.4
# 
DISCID=c4093a0e
DTITLE=Los Panchos - Ritmo y Romance 1 - Los Panchos 1
DYEAR=1900
DGENRE=
TTITLE0=Sin un amor
TTITLE1=Ya es muy tarde
TTITLE2=Solo
TTITLE3=Caminemos
TTITLE4=Contigo
TTITLE5=Sin Ti
TTITLE6=No me quieras tanto
TTITLE7=Hasta ma ana
TTITLE8=Rayito de luna
TTITLE9=Perfidia
TTITLE10=Tus tormentos
TTITLE11=Historia de un amor
TTITLE12=Cosas como Tu
TTITLE13=No sigamos pecando
EXTD=
EXTT0=
EXTT1=
EXTT2=
EXTT3=
EXTT4=
EXTT5=
EXTT6=
EXTT7=
EXTT8=
EXTT9=
EXTT10=
EXTT11=
EXTT12=
EXTT13=
PLAYORDER=
